PathFileType	4	(X/Y/Z)	C:\Users\Graham\Documents\MATLAB\MOtoNMS_v2_2\MyData\ElaboratedData\S1\17-05-18\dynamicElaborations\rightStSt\\NE2\NE2.trc
DataRate	CameraRate	NumFrames	NumMarkers	Units	OrigDataRate	DataStartFrame
100	100	10	29	mm	100	4
Frame#	Time	V_Sacral			R_ASIS			L_ASIS			R_Knee_Lat			R_Thigh_Upper			R_Thigh_Front			R_Thigh_Rear			L_Knee_Lat			L_Thigh_Upper			L_Thigh_Front			L_Thigh_Rear			R_Ankle_Lat			R_Shank_Upper			R_Shank_Front			R_Shank_Rear			L_Ankle_Lat			L_Shank_Upper			L_Shank_Front			L_Shank_Rear			R_Heel			R_MTP1			R_MTP5			L_Heel			L_MTP1			L_MTP5			Clavicle			C7			R_Acromium			L_Acromium		
		X1	Y1	Z1	X2	Y2	Z2	X3	Y3	Z3	X4	Y4	Z4	X5	Y5	Z5	X6	Y6	Z6	X7	Y7	Z7	X8	Y8	Z8	X9	Y9	Z9	X10	Y10	Z10	X11	Y11	Z11	X12	Y12	Z12	X13	Y13	Z13	X14	Y14	Z14	X15	Y15	Z15	X16	Y16	Z16	X17	Y17	Z17	X18	Y18	Z18	X19	Y19	Z19	X20	Y20	Z20	X21	Y21	Z21	X22	Y22	Z22	X23	Y23	Z23	X24	Y24	Z24	X25	Y25	Z25	X26	Y26	Z26	X27	Y27	Z27	X28	Y28	Z28	X29	Y29	Z29	

4	0.030000	-81.773752	1042.946994	29.338507	106.572880	1019.962767	165.486296	126.791987	1013.997867	-65.743317	160.426401	533.865432	206.310834	144.975789	879.310985	205.912824	189.424604	762.282920	174.051989	147.361210	750.870101	239.969938	-28.965913	514.736109	-102.126116	129.265078	829.866244	-94.675925	123.217335	715.014734	-38.532686	83.012004	712.297536	-113.707122	290.039046	125.568660	209.621073	274.468739	354.732263	188.757855	285.500600	241.386284	132.739571	281.905174	235.730138	214.119034	-225.091012	113.283050	-87.573519	-70.379546	300.777670	-67.774934	-143.843892	207.588876	-19.511383	-146.219422	206.985091	-99.440695	242.901829	47.165937	151.338509	454.502845	142.261360	132.398121	445.116023	127.563544	205.280367	-305.471509	81.188825	-42.058079	-73.720187	54.656848	-10.187336	-92.183706	46.880584	-95.901796	130.673393	1440.996320	41.834015	-5.075330	1551.394680	14.920507	48.726775	1471.961109	228.298268	108.358213	1467.205247	-175.506753	
5	0.040000	-80.860789	1041.829001	31.100122	108.013277	1019.155034	166.659295	127.579646	1012.896909	-64.610542	163.352621	532.922141	205.533728	148.218335	879.873058	206.366108	193.072677	763.079948	174.159097	152.159853	751.531147	240.693704	-30.094396	513.999606	-101.466056	129.289481	828.709518	-93.806920	123.032648	713.869464	-37.696184	82.529540	711.319613	-112.844471	288.049116	123.807636	207.019783	275.400735	352.348432	186.576077	284.617624	239.065065	130.179695	281.575397	233.186881	211.546693	-232.861900	115.552321	-87.807825	-74.995787	300.547297	-67.538897	-150.075026	208.526088	-19.526250	-152.472817	208.054357	-99.379529	239.536894	46.492197	149.268051	451.886703	138.097903	128.442386	442.860675	124.141595	201.532897	-313.771817	84.909132	-42.418062	-82.870922	54.621719	-10.236699	-101.449660	46.854630	-95.917770	131.226063	1440.004356	44.294807	-4.598498	1550.417149	17.607592	49.236029	1470.527156	230.802201	108.694400	1466.486018	-173.024404	
6	0.050000	-79.792987	1040.771383	33.079967	109.689546	1018.459489	167.801161	128.478193	1011.930849	-63.498605	166.540269	532.158441	204.763796	151.740407	880.414037	206.795869	197.139809	763.931146	174.221675	156.976738	752.113190	241.146956	-30.524015	513.234300	-100.748633	129.547478	827.693329	-92.839131	123.208859	712.856238	-36.757427	82.433735	710.423827	-111.847444	285.327896	122.013207	204.663904	276.077768	349.878413	184.131821	282.916752	236.538793	127.662339	280.912959	230.664144	208.996141	-240.390337	118.268830	-88.006699	-79.185432	300.401708	-67.292945	-155.941001	209.679734	-19.498288	-158.361869	209.398563	-99.295948	234.763838	46.283120	147.818507	447.890264	132.466642	123.752209	439.735295	119.585419	197.368354	-321.798454	89.243657	-42.676947	-92.130455	54.548796	-10.330698	-110.756291	46.863326	-95.924102	131.821273	1439.118325	46.844454	-4.134588	1549.521378	20.373697	49.816398	1469.192435	233.400405	109.016503	1465.815342	-170.458649	
7	0.060000	-78.552564	1039.806701	35.277813	111.615559	1017.911088	168.897606	129.497603	1011.141612	-62.411650	169.962771	531.618020	204.050780	155.481052	880.913836	207.174587	201.547247	764.811250	174.212148	161.686736	752.586947	241.275341	-30.101182	512.447109	-99.988082	130.082870	826.858266	-91.760228	123.830725	712.011088	-35.708059	82.801038	709.634468	-110.702643	281.886320	120.212220	202.666381	276.504491	347.389599	181.546730	280.425906	233.888756	125.308744	279.885116	228.209091	206.596068	-247.567711	121.483410	-88.148365	-82.835166	300.374295	-67.047088	-161.317510	211.091180	-19.424558	-163.799203	211.068180	-99.199584	228.648510	46.562471	147.031598	442.570336	125.502535	118.561029	435.749628	113.930589	192.978248	-329.460727	94.292514	-42.782086	-101.489506	54.408545	-10.480496	-120.069136	46.898323	-95.914531	132.455455	1438.376066	49.472321	-3.686666	1548.740523	23.219946	50.478153	1467.983421	236.088532	109.307421	1465.215657	-167.819076	
8	0.070000	-77.142568	1038.971951	37.655811	113.768367	1017.543682	169.942198	130.629805	1010.568144	-61.345599	173.544131	531.329097	203.468791	159.310678	881.357315	207.471552	206.111297	765.683869	174.098905	166.130253	752.936984	241.058733	-28.696976	511.650844	-99.220465	130.929176	826.243543	-90.564769	124.972589	711.368800	-34.548501	83.699745	708.974616	-109.412994	277.813764	118.449162	201.134573	276.710754	344.976140	179.032344	277.291244	231.251601	123.273956	278.479352	225.876375	204.512707	-254.259586	125.206867	-88.209127	-85.830489	300.499968	-66.826082	-166.065189	212.787710	-19.312267	-168.693715	213.101090	-99.108509	221.465251	47.280970	146.858393	436.199537	117.627456	113.314509	431.015809	107.417981	188.696429	-336.642084	100.127940	-42.681009	-110.920370	54.171572	-10.690310	-129.342765	46.948452	-95.881128	133.116779	1437.815659	52.152638	-3.256051	1548.108923	26.139039	51.225566	1466.926371	238.848782	109.544468	1464.718030	-165.128841	
9	0.080000	-75.586151	1038.303141	40.147917	116.093327	1017.386758	170.941268	131.849383	1010.242477	-60.286803	177.181333	531.299197	203.101948	163.062846	881.742166	207.661196	210.584864	766.514136	173.851469	170.157584	753.170511	240.517473	-26.207309	510.861001	-98.499618	132.112274	825.884843	-89.251821	126.696101	710.961998	-33.283890	85.196249	708.464670	-107.995740	273.220977	116.777408	200.145956	276.727654	342.729379	176.836847	273.713407	228.779898	121.708831	276.686743	223.713338	202.907718	-260.309283	129.418766	-88.169054	-88.053519	300.810123	-66.670674	-170.031874	214.780844	-19.179623	-172.942389	215.523410	-99.045274	213.583210	48.333037	147.181759	429.156044	109.424767	108.549393	425.684108	100.425346	184.911611	-343.192188	106.801572	-42.334255	-120.374014	53.818214	-10.954651	-138.525453	47.005826	-95.815503	133.788139	1437.470710	54.851152	-2.842438	1547.657215	29.117278	52.057301	1466.048106	241.654667	109.703500	1464.361448	-162.418494	
10	0.090000	-73.923745	1037.828068	42.673798	118.513603	1017.460721	171.916014	133.115557	1010.184347	-59.213165	180.764919	531.511200	203.022712	166.572142	882.083456	207.732880	214.712301	767.279987	173.450826	173.672073	753.321425	239.716637	-22.558315	510.091802	-97.888251	133.650931	825.810562	-87.823737	129.045086	710.818562	-31.921664	87.356942	708.120428	-106.480873	268.192857	115.248671	199.725343	276.564061	340.712093	175.179814	269.879301	226.602328	120.719230	274.490115	221.749084	201.893262	-265.548220	134.079602	-88.018900	-89.386716	301.326274	-66.633321	-173.063947	217.065805	-19.054358	-176.430423	218.347368	-99.031252	205.352723	49.581447	147.847815	421.801920	101.493959	104.746105	419.884950	93.382932	181.961587	-348.928586	114.350418	-41.729015	-129.777525	53.349969	-11.256580	-147.562006	47.074634	-95.711140	134.450826	1437.364712	57.532477	-2.444888	1547.406871	32.136419	52.966793	1465.375301	244.476249	109.763874	1464.189191	-159.719245	
11	0.100000	-72.208392	1037.559202	45.154025	120.942397	1017.772127	172.900353	134.375106	1010.395828	-58.098000	184.190033	531.922779	203.269921	169.707965	882.412905	207.699566	218.283965	767.978506	172.903244	176.656984	753.447350	238.766112	-17.715163	509.352511	-97.445577	135.554423	826.037438	-86.286995	132.038973	710.958014	-30.472200	90.243971	707.951492	-104.910371	262.764513	113.903829	199.831220	276.190929	338.945001	174.194201	265.909302	224.795640	120.335246	271.861603	219.991567	201.498283	-269.812290	139.145138	-87.765757	-89.722889	302.054566	-66.767326	-175.025996	219.624009	-18.969252	-179.040211	221.567947	-99.080532	197.025070	50.883666	148.697548	414.389438	94.326722	102.202553	413.694382	86.694823	180.042781	-353.649636	122.801322	-40.889194	-139.034992	52.799781	-11.567768	-156.394955	47.181354	-95.566373	135.087882	1437.506296	60.166362	-2.063356	1547.365965	35.175292	53.942775	1464.931917	247.284745	109.712684	1464.242655	-157.057371	
12	0.110000	-70.499938	1037.489018	47.523314	123.295829	1018.310609	173.934256	135.566191	1010.857848	-56.916239	187.356181	532.470664	203.834753	172.396805	882.772525	207.602888	221.177625	768.625441	172.253050	179.176133	753.619171	237.813235	-11.690887	508.645225	-97.214180	137.817372	826.566940	-84.655171	135.666624	711.388032	-28.952652	93.904502	707.960767	-103.337831	256.921713	112.767103	200.356463	275.537253	337.407698	173.892691	261.832045	223.374114	120.499875	268.767401	218.431620	201.656613	-272.962036	144.581059	-87.434776	-88.979725	302.983660	-67.110731	-175.824781	222.429709	-18.954702	-180.666533	225.160990	-99.194389	188.720336	52.114255	149.591503	407.019512	88.231885	100.968072	407.127820	80.680725	179.163646	-357.157068	132.173337	-39.877927	-148.033684	52.237877	-11.850722	-164.964560	47.383815	-95.387089	135.686290	1437.886949	62.731505	-1.700197	1547.527500	38.211265	54.970191	1464.735108	250.055737	109.547038	1464.553753	-154.450983	
13	0.120000	-68.859154	1037.589825	49.739222	125.504184	1019.048823	175.053794	136.623221	1011.530266	-55.651820	190.159923	533.079474	204.660354	174.629374	883.203775	207.512762	223.377092	769.247848	171.588338	181.346767	753.904338	237.025441	-4.551595	507.965346	-97.209600	140.413063	827.383732	-82.953068	139.882314	712.102387	-27.392542	98.355113	708.145429	-101.827582	250.618643	111.843987	201.144877	274.497737	336.050507	174.168473	257.589727	222.295674	121.080517	265.173519	217.049441	202.221093	-274.902815	150.375087	-87.065313	-87.115262	304.087935	-67.669167	-175.431005	225.460393	-19.029624	-181.233445	229.085347	-99.357790	180.439838	53.179756	150.424118	399.654494	83.317714	100.853635	400.156624	75.544644	179.154601	-359.283721	142.476456	-38.790345	-156.654683	51.770545	-12.063060	-173.207730	47.775760	-95.188161	136.237611	1438.481848	65.216268	-1.361020	1547.870822	41.221673	56.031634	1464.790528	252.770573	109.273781	1465.137731	-151.909647	
